<mxfile host="app.diagrams.net" modified="2023-06-21T13:25:33.690Z" agent="Mozilla/5.0 (Macintosh; Intel Mac OS X 10_15_7) AppleWebKit/537.36 (KHTML, like Gecko) Chrome/113.0.0.0 Safari/537.36" etag="FtFOIPsohoqmT6fB3NfH" version="21.3.8" type="github">
  <diagram name="Page-1" id="8ToRotbsmDNmmr7wD_bL">
    <mxGraphModel dx="1242" dy="685" grid="1" gridSize="10" guides="1" tooltips="1" connect="1" arrows="1" fold="1" page="1" pageScale="1" pageWidth="827" pageHeight="1169" math="0" shadow="0">
      <root>
        <mxCell id="0" />
        <mxCell id="1" parent="0" />
        <mxCell id="P3CmtYsPwi7_TScskWWs-3" value="" style="ellipse;whiteSpace=wrap;html=1;aspect=fixed;" vertex="1" parent="1">
          <mxGeometry x="70" y="200" width="50" height="50" as="geometry" />
        </mxCell>
        <mxCell id="P3CmtYsPwi7_TScskWWs-4" value="" style="ellipse;whiteSpace=wrap;html=1;aspect=fixed;" vertex="1" parent="1">
          <mxGeometry x="150" y="150" width="50" height="50" as="geometry" />
        </mxCell>
        <mxCell id="P3CmtYsPwi7_TScskWWs-5" value="" style="ellipse;whiteSpace=wrap;html=1;aspect=fixed;" vertex="1" parent="1">
          <mxGeometry x="70" y="288" width="50" height="50" as="geometry" />
        </mxCell>
        <mxCell id="P3CmtYsPwi7_TScskWWs-6" value="" style="ellipse;whiteSpace=wrap;html=1;aspect=fixed;" vertex="1" parent="1">
          <mxGeometry x="70" y="370" width="50" height="50" as="geometry" />
        </mxCell>
        <mxCell id="P3CmtYsPwi7_TScskWWs-7" value="" style="ellipse;whiteSpace=wrap;html=1;aspect=fixed;" vertex="1" parent="1">
          <mxGeometry x="150" y="320" width="50" height="50" as="geometry" />
        </mxCell>
        <mxCell id="P3CmtYsPwi7_TScskWWs-8" value="" style="ellipse;whiteSpace=wrap;html=1;aspect=fixed;" vertex="1" parent="1">
          <mxGeometry x="150" y="220" width="50" height="50" as="geometry" />
        </mxCell>
        <mxCell id="P3CmtYsPwi7_TScskWWs-9" value="" style="ellipse;whiteSpace=wrap;html=1;aspect=fixed;" vertex="1" parent="1">
          <mxGeometry x="150" y="420" width="50" height="50" as="geometry" />
        </mxCell>
        <mxCell id="P3CmtYsPwi7_TScskWWs-10" value="" style="ellipse;whiteSpace=wrap;html=1;aspect=fixed;" vertex="1" parent="1">
          <mxGeometry x="250" y="420" width="50" height="50" as="geometry" />
        </mxCell>
        <mxCell id="P3CmtYsPwi7_TScskWWs-11" value="" style="ellipse;whiteSpace=wrap;html=1;aspect=fixed;" vertex="1" parent="1">
          <mxGeometry x="250" y="320" width="50" height="50" as="geometry" />
        </mxCell>
        <mxCell id="P3CmtYsPwi7_TScskWWs-12" value="" style="ellipse;whiteSpace=wrap;html=1;aspect=fixed;" vertex="1" parent="1">
          <mxGeometry x="250" y="220" width="50" height="50" as="geometry" />
        </mxCell>
        <mxCell id="P3CmtYsPwi7_TScskWWs-13" value="" style="ellipse;whiteSpace=wrap;html=1;aspect=fixed;" vertex="1" parent="1">
          <mxGeometry x="250" y="150" width="50" height="50" as="geometry" />
        </mxCell>
        <mxCell id="P3CmtYsPwi7_TScskWWs-14" value="&lt;font style=&quot;font-size: 15px;&quot;&gt;...&lt;/font&gt;" style="rounded=0;whiteSpace=wrap;html=1;strokeColor=none;fillColor=none;rotation=90;" vertex="1" parent="1">
          <mxGeometry x="84" y="260" width="30" height="20" as="geometry" />
        </mxCell>
        <mxCell id="P3CmtYsPwi7_TScskWWs-15" value="&lt;font style=&quot;font-size: 15px;&quot;&gt;...&lt;/font&gt;" style="rounded=0;whiteSpace=wrap;html=1;strokeColor=none;fillColor=none;rotation=90;" vertex="1" parent="1">
          <mxGeometry x="84" y="347" width="30" height="20" as="geometry" />
        </mxCell>
        <mxCell id="P3CmtYsPwi7_TScskWWs-16" value="&lt;font style=&quot;font-size: 15px;&quot;&gt;...&lt;/font&gt;" style="rounded=0;whiteSpace=wrap;html=1;strokeColor=none;fillColor=none;rotation=90;" vertex="1" parent="1">
          <mxGeometry x="165" y="288" width="30" height="20" as="geometry" />
        </mxCell>
        <mxCell id="P3CmtYsPwi7_TScskWWs-18" value="&lt;font style=&quot;font-size: 15px;&quot;&gt;...&lt;/font&gt;" style="rounded=0;whiteSpace=wrap;html=1;strokeColor=none;fillColor=none;rotation=90;" vertex="1" parent="1">
          <mxGeometry x="166" y="387" width="25" height="20" as="geometry" />
        </mxCell>
        <mxCell id="P3CmtYsPwi7_TScskWWs-19" value="" style="ellipse;whiteSpace=wrap;html=1;aspect=fixed;" vertex="1" parent="1">
          <mxGeometry x="563" y="297" width="50" height="50" as="geometry" />
        </mxCell>
        <mxCell id="P3CmtYsPwi7_TScskWWs-20" value="" style="endArrow=none;html=1;rounded=0;exitX=1;exitY=0.5;exitDx=0;exitDy=0;entryX=0;entryY=0.5;entryDx=0;entryDy=0;" edge="1" parent="1" source="P3CmtYsPwi7_TScskWWs-3" target="P3CmtYsPwi7_TScskWWs-4">
          <mxGeometry width="50" height="50" relative="1" as="geometry">
            <mxPoint x="390" y="450" as="sourcePoint" />
            <mxPoint x="440" y="400" as="targetPoint" />
          </mxGeometry>
        </mxCell>
        <mxCell id="P3CmtYsPwi7_TScskWWs-22" value="" style="endArrow=none;html=1;rounded=0;exitX=1;exitY=0.5;exitDx=0;exitDy=0;entryX=0;entryY=0.5;entryDx=0;entryDy=0;" edge="1" parent="1" source="P3CmtYsPwi7_TScskWWs-3" target="P3CmtYsPwi7_TScskWWs-8">
          <mxGeometry width="50" height="50" relative="1" as="geometry">
            <mxPoint x="130" y="235" as="sourcePoint" />
            <mxPoint x="162" y="194" as="targetPoint" />
          </mxGeometry>
        </mxCell>
        <mxCell id="P3CmtYsPwi7_TScskWWs-23" value="" style="endArrow=none;html=1;rounded=0;exitX=1;exitY=0.5;exitDx=0;exitDy=0;entryX=0.02;entryY=0.64;entryDx=0;entryDy=0;entryPerimeter=0;" edge="1" parent="1" source="P3CmtYsPwi7_TScskWWs-3" target="P3CmtYsPwi7_TScskWWs-7">
          <mxGeometry width="50" height="50" relative="1" as="geometry">
            <mxPoint x="140" y="245" as="sourcePoint" />
            <mxPoint x="172" y="204" as="targetPoint" />
          </mxGeometry>
        </mxCell>
        <mxCell id="P3CmtYsPwi7_TScskWWs-24" value="" style="endArrow=none;html=1;rounded=0;entryX=0.04;entryY=0.68;entryDx=0;entryDy=0;entryPerimeter=0;" edge="1" parent="1">
          <mxGeometry width="50" height="50" relative="1" as="geometry">
            <mxPoint x="150" y="445" as="sourcePoint" />
            <mxPoint x="120" y="229" as="targetPoint" />
          </mxGeometry>
        </mxCell>
        <mxCell id="P3CmtYsPwi7_TScskWWs-25" value="" style="endArrow=none;html=1;rounded=0;exitX=1;exitY=0.5;exitDx=0;exitDy=0;entryX=0;entryY=0.5;entryDx=0;entryDy=0;" edge="1" parent="1" source="P3CmtYsPwi7_TScskWWs-5" target="P3CmtYsPwi7_TScskWWs-4">
          <mxGeometry width="50" height="50" relative="1" as="geometry">
            <mxPoint x="160" y="265" as="sourcePoint" />
            <mxPoint x="192" y="224" as="targetPoint" />
          </mxGeometry>
        </mxCell>
        <mxCell id="P3CmtYsPwi7_TScskWWs-26" value="" style="endArrow=none;html=1;rounded=0;exitX=1;exitY=0.5;exitDx=0;exitDy=0;entryX=0;entryY=0.5;entryDx=0;entryDy=0;" edge="1" parent="1" target="P3CmtYsPwi7_TScskWWs-8">
          <mxGeometry width="50" height="50" relative="1" as="geometry">
            <mxPoint x="120" y="311" as="sourcePoint" />
            <mxPoint x="152" y="270" as="targetPoint" />
          </mxGeometry>
        </mxCell>
        <mxCell id="P3CmtYsPwi7_TScskWWs-27" value="" style="endArrow=none;html=1;rounded=0;exitX=1;exitY=0.5;exitDx=0;exitDy=0;entryX=0;entryY=0.5;entryDx=0;entryDy=0;" edge="1" parent="1" source="P3CmtYsPwi7_TScskWWs-5" target="P3CmtYsPwi7_TScskWWs-7">
          <mxGeometry width="50" height="50" relative="1" as="geometry">
            <mxPoint x="180" y="285" as="sourcePoint" />
            <mxPoint x="212" y="244" as="targetPoint" />
          </mxGeometry>
        </mxCell>
        <mxCell id="P3CmtYsPwi7_TScskWWs-28" value="" style="endArrow=none;html=1;rounded=0;exitX=1;exitY=0.5;exitDx=0;exitDy=0;entryX=0;entryY=0.5;entryDx=0;entryDy=0;" edge="1" parent="1" source="P3CmtYsPwi7_TScskWWs-5" target="P3CmtYsPwi7_TScskWWs-9">
          <mxGeometry width="50" height="50" relative="1" as="geometry">
            <mxPoint x="190" y="295" as="sourcePoint" />
            <mxPoint x="222" y="254" as="targetPoint" />
          </mxGeometry>
        </mxCell>
        <mxCell id="P3CmtYsPwi7_TScskWWs-29" value="" style="endArrow=none;html=1;rounded=0;exitX=1;exitY=0.5;exitDx=0;exitDy=0;entryX=0;entryY=0.5;entryDx=0;entryDy=0;" edge="1" parent="1" source="P3CmtYsPwi7_TScskWWs-6" target="P3CmtYsPwi7_TScskWWs-4">
          <mxGeometry width="50" height="50" relative="1" as="geometry">
            <mxPoint x="200" y="305" as="sourcePoint" />
            <mxPoint x="232" y="264" as="targetPoint" />
          </mxGeometry>
        </mxCell>
        <mxCell id="P3CmtYsPwi7_TScskWWs-30" value="" style="endArrow=none;html=1;rounded=0;exitX=1;exitY=0.5;exitDx=0;exitDy=0;entryX=0.04;entryY=0.68;entryDx=0;entryDy=0;entryPerimeter=0;" edge="1" parent="1">
          <mxGeometry width="50" height="50" relative="1" as="geometry">
            <mxPoint x="120" y="391" as="sourcePoint" />
            <mxPoint x="152" y="350" as="targetPoint" />
          </mxGeometry>
        </mxCell>
        <mxCell id="P3CmtYsPwi7_TScskWWs-31" value="" style="endArrow=none;html=1;rounded=0;exitX=1;exitY=0.5;exitDx=0;exitDy=0;" edge="1" parent="1" source="P3CmtYsPwi7_TScskWWs-6">
          <mxGeometry width="50" height="50" relative="1" as="geometry">
            <mxPoint x="220" y="325" as="sourcePoint" />
            <mxPoint x="150" y="450" as="targetPoint" />
          </mxGeometry>
        </mxCell>
        <mxCell id="P3CmtYsPwi7_TScskWWs-32" value="" style="endArrow=none;html=1;rounded=0;entryX=0;entryY=0.5;entryDx=0;entryDy=0;" edge="1" parent="1" target="P3CmtYsPwi7_TScskWWs-8">
          <mxGeometry width="50" height="50" relative="1" as="geometry">
            <mxPoint x="120" y="390" as="sourcePoint" />
            <mxPoint x="146" y="347" as="targetPoint" />
          </mxGeometry>
        </mxCell>
        <mxCell id="P3CmtYsPwi7_TScskWWs-33" value="&lt;font style=&quot;font-size: 15px;&quot;&gt;...&lt;/font&gt;" style="rounded=0;whiteSpace=wrap;html=1;strokeColor=none;fillColor=none;rotation=0;" vertex="1" parent="1">
          <mxGeometry x="220" y="290" width="25" height="20" as="geometry" />
        </mxCell>
        <mxCell id="P3CmtYsPwi7_TScskWWs-34" value="" style="ellipse;whiteSpace=wrap;html=1;aspect=fixed;" vertex="1" parent="1">
          <mxGeometry x="477" y="420" width="50" height="50" as="geometry" />
        </mxCell>
        <mxCell id="P3CmtYsPwi7_TScskWWs-35" value="" style="ellipse;whiteSpace=wrap;html=1;aspect=fixed;" vertex="1" parent="1">
          <mxGeometry x="477" y="320" width="50" height="50" as="geometry" />
        </mxCell>
        <mxCell id="P3CmtYsPwi7_TScskWWs-36" value="" style="ellipse;whiteSpace=wrap;html=1;aspect=fixed;" vertex="1" parent="1">
          <mxGeometry x="477" y="220" width="50" height="50" as="geometry" />
        </mxCell>
        <mxCell id="P3CmtYsPwi7_TScskWWs-37" value="" style="ellipse;whiteSpace=wrap;html=1;aspect=fixed;" vertex="1" parent="1">
          <mxGeometry x="477" y="150" width="50" height="50" as="geometry" />
        </mxCell>
        <mxCell id="P3CmtYsPwi7_TScskWWs-38" value="&lt;font style=&quot;font-size: 15px;&quot;&gt;...&lt;/font&gt;" style="rounded=0;whiteSpace=wrap;html=1;strokeColor=none;fillColor=none;rotation=0;" vertex="1" parent="1">
          <mxGeometry x="430" y="290" width="25" height="20" as="geometry" />
        </mxCell>
        <mxCell id="P3CmtYsPwi7_TScskWWs-42" value="" style="endArrow=none;html=1;rounded=0;exitX=1;exitY=0.5;exitDx=0;exitDy=0;entryX=0;entryY=0.5;entryDx=0;entryDy=0;" edge="1" parent="1" source="P3CmtYsPwi7_TScskWWs-37" target="P3CmtYsPwi7_TScskWWs-19">
          <mxGeometry width="50" height="50" relative="1" as="geometry">
            <mxPoint x="473" y="450" as="sourcePoint" />
            <mxPoint x="523" y="400" as="targetPoint" />
          </mxGeometry>
        </mxCell>
        <mxCell id="P3CmtYsPwi7_TScskWWs-45" value="" style="endArrow=none;html=1;rounded=0;exitX=1;exitY=0.5;exitDx=0;exitDy=0;" edge="1" parent="1" source="P3CmtYsPwi7_TScskWWs-34">
          <mxGeometry width="50" height="50" relative="1" as="geometry">
            <mxPoint x="557" y="205" as="sourcePoint" />
            <mxPoint x="563" y="320" as="targetPoint" />
          </mxGeometry>
        </mxCell>
        <mxCell id="P3CmtYsPwi7_TScskWWs-46" value="" style="endArrow=none;html=1;rounded=0;exitX=1;exitY=0.5;exitDx=0;exitDy=0;" edge="1" parent="1" source="P3CmtYsPwi7_TScskWWs-36">
          <mxGeometry width="50" height="50" relative="1" as="geometry">
            <mxPoint x="567" y="215" as="sourcePoint" />
            <mxPoint x="563" y="320" as="targetPoint" />
          </mxGeometry>
        </mxCell>
        <mxCell id="P3CmtYsPwi7_TScskWWs-47" value="" style="ellipse;whiteSpace=wrap;html=1;aspect=fixed;" vertex="1" parent="1">
          <mxGeometry x="360" y="420" width="50" height="50" as="geometry" />
        </mxCell>
        <mxCell id="P3CmtYsPwi7_TScskWWs-48" value="" style="ellipse;whiteSpace=wrap;html=1;aspect=fixed;" vertex="1" parent="1">
          <mxGeometry x="360" y="320" width="50" height="50" as="geometry" />
        </mxCell>
        <mxCell id="P3CmtYsPwi7_TScskWWs-49" value="" style="ellipse;whiteSpace=wrap;html=1;aspect=fixed;" vertex="1" parent="1">
          <mxGeometry x="360" y="220" width="50" height="50" as="geometry" />
        </mxCell>
        <mxCell id="P3CmtYsPwi7_TScskWWs-50" value="" style="ellipse;whiteSpace=wrap;html=1;aspect=fixed;" vertex="1" parent="1">
          <mxGeometry x="360" y="150" width="50" height="50" as="geometry" />
        </mxCell>
        <mxCell id="P3CmtYsPwi7_TScskWWs-51" value="&lt;font style=&quot;font-size: 15px;&quot;&gt;...&lt;/font&gt;" style="rounded=0;whiteSpace=wrap;html=1;strokeColor=none;fillColor=none;rotation=90;" vertex="1" parent="1">
          <mxGeometry x="373" y="285" width="30" height="20" as="geometry" />
        </mxCell>
        <mxCell id="P3CmtYsPwi7_TScskWWs-52" value="&lt;font style=&quot;font-size: 15px;&quot;&gt;...&lt;/font&gt;" style="rounded=0;whiteSpace=wrap;html=1;strokeColor=none;fillColor=none;rotation=90;" vertex="1" parent="1">
          <mxGeometry x="268" y="287" width="30" height="20" as="geometry" />
        </mxCell>
        <mxCell id="P3CmtYsPwi7_TScskWWs-53" value="&lt;font style=&quot;font-size: 15px;&quot;&gt;...&lt;/font&gt;" style="rounded=0;whiteSpace=wrap;html=1;strokeColor=none;fillColor=none;rotation=90;" vertex="1" parent="1">
          <mxGeometry x="264" y="385" width="30" height="20" as="geometry" />
        </mxCell>
        <mxCell id="P3CmtYsPwi7_TScskWWs-54" value="&lt;font style=&quot;font-size: 15px;&quot;&gt;...&lt;/font&gt;" style="rounded=0;whiteSpace=wrap;html=1;strokeColor=none;fillColor=none;rotation=90;" vertex="1" parent="1">
          <mxGeometry x="373" y="387" width="30" height="20" as="geometry" />
        </mxCell>
        <mxCell id="P3CmtYsPwi7_TScskWWs-55" value="" style="endArrow=none;html=1;rounded=0;exitX=1;exitY=0.5;exitDx=0;exitDy=0;entryX=0;entryY=0.5;entryDx=0;entryDy=0;" edge="1" parent="1" source="P3CmtYsPwi7_TScskWWs-13" target="P3CmtYsPwi7_TScskWWs-50">
          <mxGeometry width="50" height="50" relative="1" as="geometry">
            <mxPoint x="410" y="450" as="sourcePoint" />
            <mxPoint x="460" y="400" as="targetPoint" />
          </mxGeometry>
        </mxCell>
        <mxCell id="P3CmtYsPwi7_TScskWWs-56" value="&lt;font style=&quot;font-size: 15px;&quot;&gt;...&lt;/font&gt;" style="rounded=0;whiteSpace=wrap;html=1;strokeColor=none;fillColor=none;rotation=90;" vertex="1" parent="1">
          <mxGeometry x="215" y="338" width="30" height="20" as="geometry" />
        </mxCell>
        <mxCell id="P3CmtYsPwi7_TScskWWs-64" value="" style="endArrow=none;html=1;rounded=0;exitX=1;exitY=0.5;exitDx=0;exitDy=0;entryX=0;entryY=0.5;entryDx=0;entryDy=0;" edge="1" parent="1" source="P3CmtYsPwi7_TScskWWs-13" target="P3CmtYsPwi7_TScskWWs-49">
          <mxGeometry width="50" height="50" relative="1" as="geometry">
            <mxPoint x="310" y="185" as="sourcePoint" />
            <mxPoint x="370" y="185" as="targetPoint" />
          </mxGeometry>
        </mxCell>
        <mxCell id="P3CmtYsPwi7_TScskWWs-65" value="" style="endArrow=none;html=1;rounded=0;exitX=1;exitY=0.5;exitDx=0;exitDy=0;entryX=0;entryY=0.5;entryDx=0;entryDy=0;" edge="1" parent="1" source="P3CmtYsPwi7_TScskWWs-98" target="P3CmtYsPwi7_TScskWWs-48">
          <mxGeometry width="50" height="50" relative="1" as="geometry">
            <mxPoint x="320" y="195" as="sourcePoint" />
            <mxPoint x="380" y="195" as="targetPoint" />
          </mxGeometry>
        </mxCell>
        <mxCell id="P3CmtYsPwi7_TScskWWs-66" value="" style="endArrow=none;html=1;rounded=0;exitX=1;exitY=0.5;exitDx=0;exitDy=0;entryX=0;entryY=0.5;entryDx=0;entryDy=0;" edge="1" parent="1" source="P3CmtYsPwi7_TScskWWs-100" target="P3CmtYsPwi7_TScskWWs-47">
          <mxGeometry width="50" height="50" relative="1" as="geometry">
            <mxPoint x="330" y="205" as="sourcePoint" />
            <mxPoint x="390" y="205" as="targetPoint" />
          </mxGeometry>
        </mxCell>
        <mxCell id="P3CmtYsPwi7_TScskWWs-67" value="" style="endArrow=none;html=1;rounded=0;exitX=1;exitY=0.5;exitDx=0;exitDy=0;entryX=0;entryY=0.5;entryDx=0;entryDy=0;" edge="1" parent="1" source="P3CmtYsPwi7_TScskWWs-12" target="P3CmtYsPwi7_TScskWWs-50">
          <mxGeometry width="50" height="50" relative="1" as="geometry">
            <mxPoint x="340" y="215" as="sourcePoint" />
            <mxPoint x="400" y="215" as="targetPoint" />
          </mxGeometry>
        </mxCell>
        <mxCell id="P3CmtYsPwi7_TScskWWs-68" value="" style="endArrow=none;html=1;rounded=0;exitX=1;exitY=0.5;exitDx=0;exitDy=0;entryX=0;entryY=0.5;entryDx=0;entryDy=0;" edge="1" parent="1" source="P3CmtYsPwi7_TScskWWs-12" target="P3CmtYsPwi7_TScskWWs-49">
          <mxGeometry width="50" height="50" relative="1" as="geometry">
            <mxPoint x="350" y="225" as="sourcePoint" />
            <mxPoint x="410" y="225" as="targetPoint" />
          </mxGeometry>
        </mxCell>
        <mxCell id="P3CmtYsPwi7_TScskWWs-69" value="" style="endArrow=none;html=1;rounded=0;exitX=1;exitY=0.5;exitDx=0;exitDy=0;entryX=0;entryY=0.5;entryDx=0;entryDy=0;" edge="1" parent="1" source="P3CmtYsPwi7_TScskWWs-12" target="P3CmtYsPwi7_TScskWWs-48">
          <mxGeometry width="50" height="50" relative="1" as="geometry">
            <mxPoint x="360" y="235" as="sourcePoint" />
            <mxPoint x="420" y="235" as="targetPoint" />
          </mxGeometry>
        </mxCell>
        <mxCell id="P3CmtYsPwi7_TScskWWs-70" value="" style="endArrow=none;html=1;rounded=0;entryX=0.02;entryY=0.64;entryDx=0;entryDy=0;entryPerimeter=0;" edge="1" parent="1" target="P3CmtYsPwi7_TScskWWs-47">
          <mxGeometry width="50" height="50" relative="1" as="geometry">
            <mxPoint x="300" y="245" as="sourcePoint" />
            <mxPoint x="430" y="245" as="targetPoint" />
          </mxGeometry>
        </mxCell>
        <mxCell id="P3CmtYsPwi7_TScskWWs-71" value="" style="endArrow=none;html=1;rounded=0;exitX=1;exitY=0.5;exitDx=0;exitDy=0;entryX=0;entryY=0.5;entryDx=0;entryDy=0;" edge="1" parent="1" target="P3CmtYsPwi7_TScskWWs-50">
          <mxGeometry width="50" height="50" relative="1" as="geometry">
            <mxPoint x="300" y="347.5" as="sourcePoint" />
            <mxPoint x="360" y="347.5" as="targetPoint" />
          </mxGeometry>
        </mxCell>
        <mxCell id="P3CmtYsPwi7_TScskWWs-72" value="" style="endArrow=none;html=1;rounded=0;exitX=1;exitY=0.5;exitDx=0;exitDy=0;entryX=0;entryY=0.5;entryDx=0;entryDy=0;" edge="1" parent="1" source="P3CmtYsPwi7_TScskWWs-11" target="P3CmtYsPwi7_TScskWWs-49">
          <mxGeometry width="50" height="50" relative="1" as="geometry">
            <mxPoint x="390" y="265" as="sourcePoint" />
            <mxPoint x="450" y="265" as="targetPoint" />
          </mxGeometry>
        </mxCell>
        <mxCell id="P3CmtYsPwi7_TScskWWs-73" value="" style="endArrow=none;html=1;rounded=0;exitX=1;exitY=0.5;exitDx=0;exitDy=0;entryX=0;entryY=0.5;entryDx=0;entryDy=0;" edge="1" parent="1" source="P3CmtYsPwi7_TScskWWs-11" target="P3CmtYsPwi7_TScskWWs-48">
          <mxGeometry width="50" height="50" relative="1" as="geometry">
            <mxPoint x="400" y="275" as="sourcePoint" />
            <mxPoint x="460" y="275" as="targetPoint" />
          </mxGeometry>
        </mxCell>
        <mxCell id="P3CmtYsPwi7_TScskWWs-74" value="" style="endArrow=none;html=1;rounded=0;exitX=1;exitY=0.5;exitDx=0;exitDy=0;" edge="1" parent="1" source="P3CmtYsPwi7_TScskWWs-11">
          <mxGeometry width="50" height="50" relative="1" as="geometry">
            <mxPoint x="410" y="285" as="sourcePoint" />
            <mxPoint x="360" y="450" as="targetPoint" />
          </mxGeometry>
        </mxCell>
        <mxCell id="P3CmtYsPwi7_TScskWWs-75" value="" style="endArrow=none;html=1;rounded=0;exitX=1;exitY=0.5;exitDx=0;exitDy=0;entryX=0;entryY=0.5;entryDx=0;entryDy=0;" edge="1" parent="1" source="P3CmtYsPwi7_TScskWWs-10" target="P3CmtYsPwi7_TScskWWs-50">
          <mxGeometry width="50" height="50" relative="1" as="geometry">
            <mxPoint x="420" y="295" as="sourcePoint" />
            <mxPoint x="480" y="295" as="targetPoint" />
          </mxGeometry>
        </mxCell>
        <mxCell id="P3CmtYsPwi7_TScskWWs-76" value="" style="endArrow=none;html=1;rounded=0;exitX=1;exitY=0.5;exitDx=0;exitDy=0;entryX=0;entryY=0.5;entryDx=0;entryDy=0;" edge="1" parent="1" source="P3CmtYsPwi7_TScskWWs-10" target="P3CmtYsPwi7_TScskWWs-49">
          <mxGeometry width="50" height="50" relative="1" as="geometry">
            <mxPoint x="430" y="305" as="sourcePoint" />
            <mxPoint x="490" y="305" as="targetPoint" />
          </mxGeometry>
        </mxCell>
        <mxCell id="P3CmtYsPwi7_TScskWWs-77" value="" style="endArrow=none;html=1;rounded=0;exitX=1;exitY=0.5;exitDx=0;exitDy=0;entryX=0;entryY=0.5;entryDx=0;entryDy=0;" edge="1" parent="1" source="P3CmtYsPwi7_TScskWWs-10" target="P3CmtYsPwi7_TScskWWs-48">
          <mxGeometry width="50" height="50" relative="1" as="geometry">
            <mxPoint x="440" y="315" as="sourcePoint" />
            <mxPoint x="500" y="315" as="targetPoint" />
          </mxGeometry>
        </mxCell>
        <mxCell id="P3CmtYsPwi7_TScskWWs-78" value="" style="endArrow=none;html=1;rounded=0;exitX=1;exitY=0.5;exitDx=0;exitDy=0;entryX=0;entryY=0.5;entryDx=0;entryDy=0;" edge="1" parent="1" source="P3CmtYsPwi7_TScskWWs-10" target="P3CmtYsPwi7_TScskWWs-47">
          <mxGeometry width="50" height="50" relative="1" as="geometry">
            <mxPoint x="450" y="325" as="sourcePoint" />
            <mxPoint x="510" y="325" as="targetPoint" />
          </mxGeometry>
        </mxCell>
        <mxCell id="P3CmtYsPwi7_TScskWWs-80" value="&lt;font style=&quot;font-size: 15px;&quot;&gt;input layer&lt;/font&gt;" style="rounded=0;whiteSpace=wrap;html=1;fillColor=none;strokeColor=none;" vertex="1" parent="1">
          <mxGeometry x="55" y="420" width="80" height="60" as="geometry" />
        </mxCell>
        <mxCell id="P3CmtYsPwi7_TScskWWs-81" value="" style="shape=curlyBracket;whiteSpace=wrap;html=1;rounded=1;labelPosition=left;verticalLabelPosition=middle;align=right;verticalAlign=middle;rotation=-90;" vertex="1" parent="1">
          <mxGeometry x="335" y="358" width="10" height="340" as="geometry" />
        </mxCell>
        <mxCell id="P3CmtYsPwi7_TScskWWs-82" value="&lt;font style=&quot;font-size: 15px;&quot;&gt;hidden layer&lt;/font&gt;" style="rounded=0;whiteSpace=wrap;html=1;fillColor=none;strokeColor=none;" vertex="1" parent="1">
          <mxGeometry x="250" y="530" width="210" height="30" as="geometry" />
        </mxCell>
        <mxCell id="P3CmtYsPwi7_TScskWWs-83" value="&lt;font style=&quot;font-size: 15px;&quot;&gt;output layer&lt;/font&gt;" style="rounded=0;whiteSpace=wrap;html=1;fillColor=none;strokeColor=none;" vertex="1" parent="1">
          <mxGeometry x="547" y="415" width="88" height="60" as="geometry" />
        </mxCell>
        <mxCell id="P3CmtYsPwi7_TScskWWs-84" value="&lt;font style=&quot;font-size: 15px;&quot;&gt;&lt;i&gt;k&lt;/i&gt;-th layer&lt;/font&gt;" style="rounded=0;whiteSpace=wrap;html=1;fillColor=none;strokeColor=none;" vertex="1" parent="1">
          <mxGeometry x="350" y="470" width="80" height="60" as="geometry" />
        </mxCell>
        <mxCell id="P3CmtYsPwi7_TScskWWs-86" value="&lt;font style=&quot;font-size: 15px;&quot;&gt;&lt;i&gt;x&lt;/i&gt;&lt;sub&gt;1&lt;/sub&gt;&lt;/font&gt;" style="rounded=0;whiteSpace=wrap;html=1;fillColor=none;strokeColor=none;" vertex="1" parent="1">
          <mxGeometry x="34" y="198" width="44" height="60" as="geometry" />
        </mxCell>
        <mxCell id="P3CmtYsPwi7_TScskWWs-89" value="&lt;font style=&quot;font-size: 15px;&quot;&gt;&lt;i&gt;x&lt;sub&gt;d&lt;/sub&gt;&lt;/i&gt;&lt;/font&gt;" style="rounded=0;whiteSpace=wrap;html=1;fillColor=none;strokeColor=none;" vertex="1" parent="1">
          <mxGeometry x="34" y="370" width="44" height="60" as="geometry" />
        </mxCell>
        <mxCell id="P3CmtYsPwi7_TScskWWs-90" value="&lt;font style=&quot;font-size: 15px;&quot;&gt;&lt;i&gt;x&lt;sub&gt;i&lt;/sub&gt;&lt;/i&gt;&lt;/font&gt;" style="rounded=0;whiteSpace=wrap;html=1;fillColor=none;strokeColor=none;" vertex="1" parent="1">
          <mxGeometry x="34" y="287" width="44" height="60" as="geometry" />
        </mxCell>
        <mxCell id="P3CmtYsPwi7_TScskWWs-91" value="&lt;font style=&quot;font-size: 15px;&quot;&gt;&lt;i&gt;w&lt;sup&gt;1&lt;/sup&gt;&lt;/i&gt;&lt;sub&gt;11&lt;/sub&gt;&lt;/font&gt;" style="rounded=0;whiteSpace=wrap;html=1;fillColor=none;strokeColor=none;" vertex="1" parent="1">
          <mxGeometry x="106" y="150" width="44" height="70" as="geometry" />
        </mxCell>
        <mxCell id="P3CmtYsPwi7_TScskWWs-92" value="&lt;font style=&quot;font-size: 15px;&quot;&gt;&lt;i&gt;w&lt;sup&gt;1&lt;/sup&gt;&lt;sub&gt;ij&lt;/sub&gt;&lt;/i&gt;&lt;/font&gt;" style="rounded=0;whiteSpace=wrap;html=1;fillColor=default;strokeColor=none;" vertex="1" parent="1">
          <mxGeometry x="124" y="314" width="25" height="19" as="geometry" />
        </mxCell>
        <mxCell id="P3CmtYsPwi7_TScskWWs-95" value="&lt;span style=&quot;font-size: 15px;&quot;&gt;&lt;i&gt;a&lt;sup&gt;n&lt;/sup&gt;&lt;/i&gt;&lt;/span&gt;" style="rounded=0;whiteSpace=wrap;html=1;fillColor=none;strokeColor=none;" vertex="1" parent="1">
          <mxGeometry x="565" y="330" width="44" height="60" as="geometry" />
        </mxCell>
        <mxCell id="P3CmtYsPwi7_TScskWWs-96" value="&lt;font style=&quot;font-size: 15px;&quot;&gt;&lt;i&gt;w&lt;sup&gt;1&lt;/sup&gt;&lt;sub&gt;1j&lt;/sub&gt;&lt;/i&gt;&lt;/font&gt;" style="rounded=0;whiteSpace=wrap;html=1;fillColor=default;strokeColor=none;" vertex="1" parent="1">
          <mxGeometry x="113" y="234" width="25" height="19" as="geometry" />
        </mxCell>
        <mxCell id="P3CmtYsPwi7_TScskWWs-97" value="&lt;font style=&quot;font-size: 15px;&quot;&gt;&lt;i&gt;w&lt;sup&gt;k&lt;/sup&gt;&lt;/i&gt;&lt;sub&gt;11&lt;/sub&gt;&lt;/font&gt;" style="rounded=0;whiteSpace=wrap;html=1;fillColor=none;strokeColor=none;" vertex="1" parent="1">
          <mxGeometry x="298" y="128" width="44" height="70" as="geometry" />
        </mxCell>
        <mxCell id="P3CmtYsPwi7_TScskWWs-99" value="" style="endArrow=none;html=1;rounded=0;exitX=1;exitY=0.5;exitDx=0;exitDy=0;entryX=0;entryY=0.5;entryDx=0;entryDy=0;" edge="1" parent="1" source="P3CmtYsPwi7_TScskWWs-13" target="P3CmtYsPwi7_TScskWWs-98">
          <mxGeometry width="50" height="50" relative="1" as="geometry">
            <mxPoint x="300" y="175" as="sourcePoint" />
            <mxPoint x="360" y="345" as="targetPoint" />
          </mxGeometry>
        </mxCell>
        <mxCell id="P3CmtYsPwi7_TScskWWs-98" value="&lt;font style=&quot;font-size: 15px;&quot;&gt;&lt;i&gt;w&lt;sup&gt;k&lt;/sup&gt;&lt;sub&gt;1j&lt;/sub&gt;&lt;/i&gt;&lt;/font&gt;" style="rounded=0;whiteSpace=wrap;html=1;fillColor=default;strokeColor=none;" vertex="1" parent="1">
          <mxGeometry x="298" y="210" width="25" height="19" as="geometry" />
        </mxCell>
        <mxCell id="P3CmtYsPwi7_TScskWWs-102" value="" style="endArrow=none;html=1;rounded=0;exitX=1;exitY=0.5;exitDx=0;exitDy=0;entryX=0;entryY=0.5;entryDx=0;entryDy=0;" edge="1" parent="1" source="P3CmtYsPwi7_TScskWWs-13" target="P3CmtYsPwi7_TScskWWs-100">
          <mxGeometry width="50" height="50" relative="1" as="geometry">
            <mxPoint x="300" y="175" as="sourcePoint" />
            <mxPoint x="360" y="445" as="targetPoint" />
          </mxGeometry>
        </mxCell>
        <mxCell id="P3CmtYsPwi7_TScskWWs-100" value="&lt;font style=&quot;font-size: 15px;&quot;&gt;&lt;i&gt;w&lt;sup&gt;k&lt;/sup&gt;&lt;sub&gt;ij&lt;/sub&gt;&lt;/i&gt;&lt;/font&gt;" style="rounded=0;whiteSpace=wrap;html=1;fillColor=default;strokeColor=none;" vertex="1" parent="1">
          <mxGeometry x="317" y="335.5" width="25" height="19" as="geometry" />
        </mxCell>
        <mxCell id="P3CmtYsPwi7_TScskWWs-103" value="&lt;font style=&quot;font-size: 15px;&quot;&gt;&lt;i&gt;i&lt;/i&gt;-th nueron&lt;/font&gt;" style="rounded=0;whiteSpace=wrap;html=1;fillColor=none;strokeColor=none;" vertex="1" parent="1">
          <mxGeometry x="239" y="347" width="80" height="60" as="geometry" />
        </mxCell>
        <mxCell id="P3CmtYsPwi7_TScskWWs-104" value="&lt;font style=&quot;font-size: 15px;&quot;&gt;&lt;i&gt;j&lt;/i&gt;-th nueron&lt;/font&gt;" style="rounded=0;whiteSpace=wrap;html=1;fillColor=none;strokeColor=none;" vertex="1" parent="1">
          <mxGeometry x="353" y="347" width="80" height="60" as="geometry" />
        </mxCell>
        <mxCell id="P3CmtYsPwi7_TScskWWs-105" value="&lt;font style=&quot;font-size: 15px;&quot;&gt;&lt;i&gt;w&lt;sup&gt;n&lt;/sup&gt;&lt;/i&gt;&lt;sub&gt;1&lt;/sub&gt;&lt;/font&gt;" style="rounded=0;whiteSpace=wrap;html=1;fillColor=none;strokeColor=none;" vertex="1" parent="1">
          <mxGeometry x="521" y="128" width="44" height="70" as="geometry" />
        </mxCell>
        <mxCell id="P3CmtYsPwi7_TScskWWs-106" value="&lt;font style=&quot;font-size: 15px;&quot;&gt;&lt;i&gt;w&lt;sup style=&quot;&quot;&gt;n&lt;/sup&gt;&lt;sub&gt;i&lt;/sub&gt;&lt;/i&gt;&lt;/font&gt;" style="rounded=0;whiteSpace=wrap;html=1;fillColor=default;strokeColor=none;" vertex="1" parent="1">
          <mxGeometry x="522" y="312" width="33" height="20" as="geometry" />
        </mxCell>
        <mxCell id="P3CmtYsPwi7_TScskWWs-108" value="" style="endArrow=none;html=1;rounded=0;exitX=1;exitY=0.5;exitDx=0;exitDy=0;entryX=0;entryY=0.5;entryDx=0;entryDy=0;" edge="1" parent="1" source="P3CmtYsPwi7_TScskWWs-35" target="P3CmtYsPwi7_TScskWWs-19">
          <mxGeometry width="50" height="50" relative="1" as="geometry">
            <mxPoint x="537" y="455" as="sourcePoint" />
            <mxPoint x="573" y="330" as="targetPoint" />
          </mxGeometry>
        </mxCell>
        <mxCell id="P3CmtYsPwi7_TScskWWs-110" value="&lt;span style=&quot;font-size: 15px;&quot;&gt;&lt;i&gt;a&lt;sup&gt;1&lt;/sup&gt;&lt;sub&gt;1&lt;/sub&gt;&lt;/i&gt;&lt;/span&gt;" style="rounded=0;whiteSpace=wrap;html=1;fillColor=none;strokeColor=none;" vertex="1" parent="1">
          <mxGeometry x="191" y="130" width="44" height="50" as="geometry" />
        </mxCell>
        <mxCell id="P3CmtYsPwi7_TScskWWs-111" value="&lt;span style=&quot;font-size: 15px;&quot;&gt;&lt;i&gt;a&lt;sup&gt;1&lt;/sup&gt;&lt;sub&gt;2&lt;/sub&gt;&lt;/i&gt;&lt;/span&gt;" style="rounded=0;whiteSpace=wrap;html=1;fillColor=none;strokeColor=none;" vertex="1" parent="1">
          <mxGeometry x="191" y="218.5" width="44" height="50" as="geometry" />
        </mxCell>
        <mxCell id="P3CmtYsPwi7_TScskWWs-112" value="&lt;span style=&quot;font-size: 15px;&quot;&gt;&lt;i&gt;a&lt;sup&gt;k&lt;/sup&gt;&lt;sub&gt;1&lt;/sub&gt;&lt;/i&gt;&lt;/span&gt;" style="rounded=0;whiteSpace=wrap;html=1;fillColor=none;strokeColor=none;" vertex="1" parent="1">
          <mxGeometry x="403" y="148" width="44" height="50" as="geometry" />
        </mxCell>
        <mxCell id="P3CmtYsPwi7_TScskWWs-113" value="&lt;span style=&quot;font-size: 15px;&quot;&gt;&lt;i&gt;a&lt;sup&gt;k&lt;/sup&gt;&lt;sub&gt;2&lt;/sub&gt;&lt;/i&gt;&lt;/span&gt;" style="rounded=0;whiteSpace=wrap;html=1;fillColor=none;strokeColor=none;" vertex="1" parent="1">
          <mxGeometry x="403" y="220" width="44" height="50" as="geometry" />
        </mxCell>
        <mxCell id="P3CmtYsPwi7_TScskWWs-114" value="&lt;span style=&quot;font-size: 15px;&quot;&gt;&lt;i&gt;a&lt;sup&gt;k&lt;/sup&gt;&lt;sub&gt;j&lt;/sub&gt;&lt;/i&gt;&lt;/span&gt;" style="rounded=0;whiteSpace=wrap;html=1;fillColor=none;strokeColor=none;" vertex="1" parent="1">
          <mxGeometry x="403" y="320" width="44" height="50" as="geometry" />
        </mxCell>
      </root>
    </mxGraphModel>
  </diagram>
</mxfile>
